<?xml version="1.0" standalone="no"?>
<!DOCTYPE svg PUBLIC "-//W3C//DTD SVG 1.1//EN" "http://www.w3.org/Graphics/SVG/1.1/DTD/svg11.dtd">
<svg xmlns="http://www.w3.org/2000/svg">
<metadata>Generated by Fontastic.me</metadata>
<defs>
<font id="uiza" horiz-adv-x="512">
<font-face font-family="uiza" units-per-em="512" ascent="480" descent="-32"/>
<missing-glyph horiz-adv-x="512" />

<glyph glyph-name="notice" unicode="&#100;" d="M436 193l0 104c-1 79-55 155-137 175 0 0-3 40-43 40-41 0-43-39-43-39-82-19-135-97-136-176l0-100c0-49-32-58-70-97l498 0c-38 39-69 44-69 93z m-180-193c44 0 80 35 90 80l-180 0c10-45 46-80 90-80z"/>
<glyph glyph-name="search" unicode="&#101;" d="M508 26l-125 125c33 38 54 88 54 143 0 120-98 218-219 218-120 0-218-98-218-218 0-121 98-219 218-219 55 0 105 21 144 54l124-124c3-3 7-5 11-5 4 0 8 1 11 5 5 5 5 15 0 21z m-477 268c0 103 84 187 187 187 104 0 188-84 188-187 0-104-84-188-188-188-103 0-187 84-187 188z"/>
<glyph glyph-name="arrow-down-cycle" unicode="&#102;" d="M256 512c-141 0-256-115-256-256 0-141 115-256 256-256 141 0 256 115 256 256 0 141-115 256-256 256z m0-478c-122 0-222 100-222 222 0 122 100 222 222 222 122 0 222-100 222-222 0-122-100-222-222-222z m98 278l-99-99-99 99c-7 7-18 7-25 0-6-7-6-17 0-24l112-111c3-4 7-5 12-5 4 0 9 1 12 5l111 111c7 7 7 17 0 24-7 7-17 7-24 0z"/>
<glyph glyph-name="arrow" unicode="&#104;" d="M160 31c-3-4-7-5-11-5-5 0-8 1-12 5-6 6-6 16 0 23l203 202-203 202c-6 7-6 17 0 23 7 7 17 7 23 0l214-213c7-7 7-17 0-24z"/>
<glyph glyph-name="cap" unicode="&#105;" d="M492 390c-13 13-29 20-48 20l-60 0-13 36c-4 9-10 16-19 22-9 7-18 10-28 10l-136 0c-10 0-19-3-28-10-9-6-15-13-18-22l-14-36-60 0c-19 0-35-7-48-20-13-14-20-30-20-49l0-239c0-19 7-35 20-48 13-13 29-20 48-20l376 0c19 0 35 7 48 20 13 13 20 29 20 48l0 239c0 19-7 35-20 49z m-151-253c-24-23-52-35-85-35-33 0-61 12-84 35-24 24-35 52-35 85 0 33 11 61 35 84 23 24 51 35 84 35 33 0 61-11 85-35 23-23 35-51 35-84 0-33-12-61-35-85z m-85 162c-21 0-39-8-54-23-15-15-23-33-23-54 0-21 8-39 23-55 15-15 33-22 54-22 21 0 39 7 54 22 15 16 23 34 23 55 0 21-8 39-23 54-15 15-33 23-54 23z"/>
<glyph glyph-name="close" unicode="&#106;" d="M506 506c-8 8-21 8-29 0l-471-471c-8-8-8-21 0-29 4-4 9-6 15-6 5 0 10 2 14 6l471 471c8 8 8 21 0 29z m0-471l-471 471c-8 8-21 8-29 0-8-8-8-21 0-29l471-471c4-4 9-6 14-6 6 0 11 2 15 6 8 8 8 21 0 29z"/>
<glyph glyph-name="copy" unicode="&#107;" d="M423 512l-273 0c-18 0-33-15-33-33l0-28-37 0c-13 0-24-10-24-23l0-405c0-12 11-23 24-23l292 0c13 0 23 11 23 23l0 38 28 0c18 0 33 15 33 33l0 385c0 18-15 33-33 33z m-52-488l-291 0 0 403 188 0 0-76c0-15 12-27 27-27l76 0z m-79 387l63-63-60 0c-2 0-3 1-3 3z m131-326l-28 0 0 251c0 0 0 0 0 0 0 3-1 6-3 8l-104 104c0 0 0 0 0 0-2 2-5 3-8 3l-139 0 0 28c0 5 4 9 9 9l273 0c5 0 9-4 9-9l0-385 0 0c0-5-4-9-9-9z"/>
<glyph glyph-name="del" unicode="&#108;" d="M405 451l-80 0c-4 34-33 61-69 61-35 0-65-27-69-61l-79 0c-33 0-59-27-59-59l0-3c0-25 15-46 37-54l0-277c0-32 26-58 59-58l223 0c32 0 58 26 58 58l0 277c22 8 37 29 37 54l0 3c0 32-26 59-58 59z m-149 33c20 0 37-14 41-33l-82 0c4 19 21 33 41 33z m143-426c0-17-14-31-31-31l-223 0c-17 0-31 14-31 31l0 273 285 0z m37 331c0-17-14-31-31-31l-297 0c-17 0-31 14-31 31l0 3c0 17 14 31 31 31l297 0c17 0 31-14 31-31l0-3z m-254-326c7 0 14 6 14 14l0 156c0 8-7 14-14 14-8 0-14-6-14-14l0-156c0-8 6-14 14-14z m74 0c8 0 14 6 14 14l0 156c0 8-6 14-14 14-7 0-14-6-14-14l0-156c0-8 7-14 14-14z m75 0c7 0 14 6 14 14l0 156c0 8-7 14-14 14-8 0-14-6-14-14l0-156c0-8 6-14 14-14z"/>
<glyph glyph-name="estime" unicode="&#110;" d="M308 45c-4-1-9-2-13-2-11-2-19-13-16-24 1-6 4-10 8-13 4-3 10-5 16-4 5 1 10 2 15 3 11 3 18 14 15 25-3 11-14 18-25 15z m152 276c2-4 4-7 8-10 5-4 12-5 18-3 11 4 17 16 13 26-1 5-3 10-5 15-4 11-16 16-27 12-10-5-16-17-11-27 1-4 3-8 4-13z m-85-246c-4-3-8-5-11-7-10-6-14-18-8-28 2-3 4-5 6-7 6-4 15-5 22-1 5 3 9 6 13 8 10 7 13 20 6 29-6 10-19 12-28 6z m137 189c0 11-10 20-21 20-12-1-21-10-20-22 0-4 0-8 0-13 0-7 3-13 9-17 3-2 7-4 11-4 11 0 21 9 21 20 0 6 0 11 0 16z m-55-135c-9 7-22 5-29-4-3-4-5-7-8-10-8-9-7-22 2-29 1-1 1-1 2-2 8-6 20-4 27 4 3 4 7 8 10 12 7 9 5 22-4 29z m30 74c-11 4-22-2-26-13-1-4-3-8-4-12-3-9 0-19 7-25 2-1 3-1 5-2 10-4 22 1 26 12 2 5 4 10 6 15 3 11-3 22-14 25z m-269-161c-18 4-36 9-53 17 0 0 0 1 0 1-4 1-8 3-12 6 0 0 0 0 0 0-7 3-14 8-21 12-96 69-120 203-52 300 15 21 33 38 53 52 1 0 1 1 1 1 71 48 166 52 241 2l-16-23c-4-7-2-12 6-11l70 6c8 1 13 8 11 15l-19 68c-2 8-8 8-12 2l-16-23c-55 37-121 51-187 39-6-1-13-2-19-4 0 0 0 0 0 0-1 0-1 0-1 0-56-15-106-47-141-94 0-1 0-1-1-2-1-1-2-3-3-4-2-3-4-6-6-8 0-1 0-1 0-1-29-45-43-97-41-150 0 0 0 0 0-1 0-5 1-10 1-15 0-1 1-1 1-1 0-5 1-11 2-16 9-53 34-100 71-138 1 0 1 0 1 0 0 0 0 0 0 0 10-10 21-19 33-27 30-22 65-36 102-43 11-2 22 5 24 17 2 11-6 21-17 23z m25 378c-9 0-16-7-16-16l0-166 152-79c2-1 5-2 7-2 6 0 12 4 15 9 4 9 1 19-7 23l-134 69 0 146c0 9-7 16-17 16z"/>
<glyph glyph-name="folder" unicode="&#111;" d="M430 408l-122 0c-29 0-53 24-53 53 0 8-6 15-14 15l-159 0c-45 0-82-37-82-82l0-276c0-45 37-82 82-82l348 0c45 0 82 37 82 82l0 208c0 45-37 82-82 82z m53-289c0-30-24-54-53-54l-348 0c-29 0-53 24-53 54l0 275c0 29 24 53 53 53l145 0c7-38 41-68 81-68l122 0c29 0 53-24 53-53z"/>
<glyph glyph-name="home" unicode="&#112;" d="M501 280l-218 218c-15 15-39 15-54 0l-218-218c-11-11-14-27-8-41 6-15 20-24 35-24l30 0 0-163c0-27 22-49 49-49l278 0c27 0 49 22 49 49l0 163 30 0c15 0 29 9 35 24 6 14 3 30-8 41z m-187-206l-115 0 0 65c0 32 25 58 57 58 32 0 58-26 58-58z"/>
<glyph glyph-name="livestream" unicode="&#114;" d="M256 354c-35 0-63-28-63-63 0-35 28-63 63-63 35 0 63 28 63 63 0 35-28 63-63 63z m126-302c-4 30-19 58-42 78-23 21-53 32-84 32-31 0-61-11-84-32-23-20-38-48-42-78-1-4 1-8 3-12 3-3 7-5 12-5l222 0c5 0 9 2 12 5 2 4 4 8 3 12z m-218 331c6 6 6 15 0 21-5 6-15 6-21 0-62-62-62-163 0-226 3-2 7-4 11-4 4 0 7 2 10 4 6 6 6 16 0 22-50 50-50 132 0 183z m205 21c-6 6-16 6-21 0-6-6-6-15 0-21 24-25 38-57 38-92 0-34-14-67-38-91-6-6-6-16 0-22 3-2 6-4 10-4 4 0 8 2 11 4 30 31 47 71 47 113 0 43-17 83-47 113z m-273-273c-88 89-88 232 0 320 6 6 6 15 0 21-6 6-15 6-21 0-48-48-75-112-75-181 0-68 27-132 75-181 3-3 7-4 11-4 3 0 7 1 10 4 6 6 6 16 0 21z m341 341c-6 6-15 6-21 0-6-6-6-15 0-21 88-88 88-231 0-320-6-5-6-15 0-21 3-3 7-4 10-4 4 0 8 1 11 4 48 49 75 113 75 181 0 69-27 133-75 181z"/>
<glyph glyph-name="new" unicode="&#115;" d="M512 219l-219 0 0-219-74 0 0 219-219 0 0 74 219 0 0 219 74 0 0-219 219 0z"/>
<glyph glyph-name="next" unicode="&#116;" d="M256 25c127 0 231 104 231 231 0 127-104 231-231 231-127 0-231-104-231-231 0-127 104-231 231-231z m0 429c109 0 198-89 198-198 0-109-89-198-198-198-109 0-198 89-198 198 0 109 89 198 198 198z m-53-313c3-3 7-5 11-5 4 0 9 2 12 5l105 105c3 3 4 7 4 11 0 5-1 9-4 12l-105 104c-7 7-17 7-23 0-7-6-7-16 0-23l93-93-93-93c-7-6-7-17 0-23z"/>
<glyph glyph-name="noreview" unicode="&#117;" d="M458 15l-23 23 0 298-4 5-38 38 0 133-342 0 0-444 43 0 0-42 329 0 23-24c2-1 4-2 6-2 2 0 5 1 6 2 4 4 4 9 0 13z m-52 326l-99 0 0 99 86-85z m-338-256l0 410 307 0 0-99-69 69-4 4-208 0 0-384z m43-42l0 409 179 0 0-128 128 0 0-269-64 64c15 17 24 40 24 65 0 56-45 101-101 101-56 0-101-45-101-101 0-56 45-101 101-101 25 0 47 9 65 24l64-64z m166 57c-46 0-84 38-84 84 0 46 38 84 84 84 46 0 84-38 84-84 0-46-38-84-84-84z m-50 105l51 0c5 0 9 4 9 8 0 5-4 9-9 9l-51 0c-5 0-8-4-8-9 0-4 3-8 8-8z m103-34l-103 0c-5 0-8-4-8-9 0-5 3-8 8-8l103 0c4 0 8 3 8 8 0 5-4 9-8 9z"/>
<glyph glyph-name="play" unicode="&#118;" d="M449 292l-340 215c-10 6-23 5-32 5-38 0-38-29-38-37l0-438c0-7 0-37 38-37 9 0 22-1 32 5l340 215c28 16 24 36 24 36 0 0 4 20-24 36z"/>
<glyph glyph-name="publish" unicode="&#119;" d="M400 70l-110 0 0 111 37 0c9 0 14 10 9 18l-71 97c-4 7-14 7-18 0l-71-97c-5-8 0-18 9-18l37 0 0-111-123 0c-55 3-99 54-99 110 0 38 21 72 52 90-3 7-5 16-5 24 0 39 32 71 71 71 9 0 17-1 25-4 22 48 71 81 128 81 74 0 135-56 141-128 57-10 100-62 100-122 0-63-49-118-112-122z"/>
<glyph glyph-name="size" unicode="&#120;" d="M18 357c10 0 18 8 18 18l0 76 115-115c3-3 8-5 12-5 5 0 9 2 13 5 7 7 7 19 0 26l-115 114 76 0c10 0 18 8 18 18 0 10-8 18-18 18l-119 0c-10 0-18-8-18-18l0-119c0-10 8-18 18-18z m476-202c-10 0-18-8-18-18l0-76-118 118c-7 7-18 7-25 0-7-7-7-18 0-25l118-118-76 0c-10 0-18-8-18-18 0-10 8-18 18-18l119 0c10 0 18 8 18 18l0 119c0 10-8 18-18 18z m-340 24l-118-118 0 76c0 10-8 18-18 18-10 0-18-8-18-18l0-119c0-10 8-18 18-18l119 0c10 0 18 8 18 18 0 10-8 18-18 18l-76 0 118 118c7 7 7 18 0 25-7 7-18 7-25 0z m340 333l-119 0c-10 0-18-8-18-18 0-10 8-18 18-18l76 0-115-115c-7-6-7-18 0-25 4-3 8-5 13-5 4 0 9 2 13 5l114 115 0-76c0-10 8-18 18-18 10 0 18 8 18 18l0 119c0 10-8 18-18 18z"/>
<glyph glyph-name="socail" unicode="&#121;" d="M408 174c-23 0-45-9-61-26-5-4-9-9-12-15l-150 91c4 10 6 21 6 32 0 12-2 23-6 32l150 91c15-24 42-41 73-41 48 0 87 39 87 87 0 48-39 87-87 87-48 0-87-39-87-87 0-11 2-21 6-31l-150-90c-16 23-43 39-73 39-48 0-87-39-87-87 0-47 39-86 87-86 30 0 57 15 73 39l150-91c-4-10-6-20-6-31 0-23 9-45 26-62 16-16 38-25 61-25 23 0 45 9 61 25 17 17 26 39 26 62 0 23-9 45-26 61-16 17-38 26-61 26z"/>
<glyph glyph-name="speed" unicode="&#122;" d="M270 264c-5 0-9 1-14 1-29 0-59-14-75-41-23-41-8-95 32-118 14-8 29-10 43-10 29 0 59 15 75 43 18 31 13 66-8 93l29 109z m23-106c-8-13-22-19-37-19-8 0-15 0-21 3-21 12-28 38-16 59 8 13 22 21 37 21 8 0 15-2 21-6 21-11 28-38 16-58z m-37 301c-141 0-256-122-256-267 0-53 15-97 42-139l107 0 0 43-85 0c-15 31-21 61-21 96 0 120 95 224 213 224 118 0 213-104 213-224 0-35-6-65-21-96l-85 0 0-43 106 0c27 42 43 86 43 139 0 145-115 267-256 267z"/>
<glyph glyph-name="stop" unicode="&#65;" d="M428 512l-344 0c-46 0-84-38-84-84l0-344c0-47 38-85 84-85l344 0c47 0 85 38 85 85l0 344c0 46-38 84-85 84z"/>
<glyph glyph-name="time" unicode="&#67;" d="M256 512c-141 0-256-115-256-256 0-142 115-257 256-257 142 0 257 115 257 257 0 141-115 256-257 256z m0-458c-111 0-201 90-201 202 0 111 90 201 201 201 112 0 202-90 202-201 0-112-90-202-202-202z m134 209l-115 0 0 139c0 12-10 21-21 21-12 0-21-9-21-21l0-160c0-11 9-21 21-21l136 0c12 0 21 10 21 21 0 12-9 21-21 21z"/>
<glyph glyph-name="trash" unicode="&#68;" d="M85 57c0-31 26-57 57-57l228 0c31 0 57 26 57 57l0 341-342 0z m370 427l-99 0-29 28-142 0-29-28-99 0 0-57 398 0z"/>
<glyph glyph-name="upload" unicode="&#69;" d="M416 369c-5 33-21 62-46 85-27 25-63 39-100 39-28 0-56-9-80-24-20-13-37-30-48-51-5 1-11 2-16 2-45 0-81-37-81-81 0-6 0-12 2-17-29-21-47-55-47-91 0-29 11-58 31-80 20-23 47-37 75-38 1 0 1 0 1 0l91 0c8 0 14 6 14 14 0 8-6 14-14 14l-90 0c-43 3-80 44-80 90 0 30 16 57 42 72 6 4 9 11 6 18-2 5-3 11-3 18 0 29 24 53 53 53 6 0 12-2 18-4 7-2 15 1 18 8 20 41 62 68 108 68 62 0 114-46 120-108 0-6 5-11 11-12 47-8 83-52 83-101 0-52-42-98-92-102l-78 0c-8 0-14-6-14-14 0-8 6-14 14-14l78 0c1 0 1 0 1 0 32 2 62 17 85 41 22 25 34 56 34 89 0 59-40 111-96 126z m-75-152c6 6 6 15 0 20l-75 76c-3 2-6 4-10 4-4 0-7-2-10-4l-75-76c-6-5-6-14 0-20 3-3 6-4 10-4 3 0 7 1 10 4l51 51 0-234c0-8 6-15 14-15 8 0 14 7 14 15l0 234 51-51c6-5 15-5 20 0z"/>
<glyph glyph-name="url" unicode="&#70;" d="M477 477c-48 47-124 47-172 0l-85-86c-7-7-7-19 0-26 7-8 19-8 26 0l86 85c15 16 37 25 59 25 22 0 44-9 59-25 16-16 25-37 25-59 0-22-9-44-25-59l-112-112c-32-33-86-33-118 0-7 7-19 7-27 0-7-8-7-19 0-27 24-23 55-35 86-35 31 0 62 12 86 35l112 112c22 23 35 54 35 86 0 32-13 63-35 86z m-224-343l-73-72c-15-16-37-25-59-25-22 0-44 9-59 25-33 32-33 86 0 118l105 106c16 15 37 24 59 24 23 0 44-9 60-24 7-8 19-8 26 0 7 7 7 19 0 26-47 47-124 47-171 0l-106-105c-22-23-35-54-35-86 0-32 13-63 35-86 23-22 54-35 86-35 32 0 63 13 86 35l72 73c7 7 7 19 0 26-7 7-19 7-26 0z"/>
<glyph glyph-name="view" unicode="&#71;" d="M256 409c-98 0-187-54-252-141-5-7-5-17 0-24 65-87 154-141 252-141 98 0 187 54 252 141 5 7 5 17 0 24-65 87-154 141-252 141z m7-260c-65-5-119 49-114 114 3 54 46 97 100 100 65 5 119-49 114-114-3-54-46-97-100-100z m-3 49c-35-2-64 27-62 62 2 29 25 52 54 54 35 2 64-27 62-62-2-29-25-52-54-54z"/>
<glyph glyph-name="blilling" unicode="&#74;" d="M488 507l-464 0c-13 0-24-11-24-24l0-71c0-13 11-24 24-24l71 0 0-95c-13-15-65-77-72-118 0 0 0-1 0-1l0-158c0-6 5-11 11-11l129 0c3 0 6 2 8 5l55 78c0 1 1 2 1 3 0 2 6 21 12 47l168 0c5 0 10 5 10 11l0 239 71 0c13 0 24 11 24 24l0 71c0 13-11 24-24 24z m-249-256c-7-51-18-102-32-152l-50-72-113 0 0 145c5 24 30 62 51 87l0-110c0-6 5-11 10-11l39 0c1 0 2 0 4 1l1 0c1 1 1 1 2 2l1 1c0 0 1 1 1 2l1 1c0 0 0 0 0 1 10 39 33 107 51 122 12 10 19 12 22 12 2 0 4-1 5-3 6-8 8-17 7-26z m157-92l-152 0c7 29 13 62 17 89 1 15-3 30-12 43-6 6-13 9-22 9-13-1-26-7-35-16-25-22-48-99-56-125l-20 0 0 277 280 0z m95 253c0-1-1-2-3-2l-71 0 0 26 19 0c6 0 11 5 11 11 0 6-5 11-11 11l-360 0c-6 0-11-5-11-11 0-6 5-11 11-11l19 0 0-27-71 0c-2 0-3 1-3 3l0 71c0 1 1 2 3 2l464 0c2 0 3-1 3-2z"/>
<glyph glyph-name="home-1" unicode="&#76;" d="M507 304l-243 178c-5 3-11 3-16 0l-243-178c-5-4-7-13-2-19 4-6 12-7 18-3l235 172 235-172c2-1 5-2 8-2 4 0 8 2 10 5 5 6 3 15-2 19z m-65-25c-7 0-13-6-13-13l0-212-106 0 0 116c0 37-30 67-67 67-37 0-67-30-67-67l0-116-106 0 0 212c0 7-6 13-13 13-8 0-14-6-14-13l0-225c0-7 6-13 14-13l133 0c7 0 13 5 13 12 0 0 0 1 0 1l0 129c0 22 18 40 40 40 22 0 40-18 40-40l0-129c0 0 0-1 0-1 0-7 6-12 13-12l133 0c8 0 14 6 14 13l0 225c0 7-6 13-14 13z"/>
<glyph glyph-name="player" unicode="&#77;" d="M475 493l-300 0c-21 0-38-17-38-37l0-300c0-21 17-37 38-37l300 0c20 0 37 16 37 37l0 300c0 20-17 37-37 37z m12-337c0-7-6-12-12-12l-300 0c-7 0-13 5-13 12l0 300c0 7 6 12 13 12l300 0c6 0 12-5 12-12z m-237-100c0-7-6-12-13-12l-200 0c-6 0-12 5-12 12l0 200c0 7 6 12 12 12l75 0 0 25-75 0c-20 0-37-16-37-37l0-200c0-20 17-37 37-37l200 0c21 0 38 17 38 37l0 38-25 0z"/>
<glyph glyph-name="setting" unicode="&#78;" d="M486 310l-36 6c-4 12-9 24-15 35l22 29c9 13 7 30-4 41l-32 32c-6 6-14 9-22 9-7 0-13-2-18-6l-30-21c-12 6-24 11-36 15l-6 36c-3 15-16 26-31 26l-45 0c-16 0-29-11-32-26l-6-37c-12-4-24-8-35-14l-29 21c-5 4-12 6-18 6-9 0-17-4-23-10l-32-32c-11-10-12-28-3-40l21-30c-6-12-10-23-14-35l-36-6c-15-3-26-16-26-32l0-45c0-15 11-28 26-31l37-6c4-12 8-24 14-35l-21-29c-9-13-7-30 4-41l32-32c6-6 14-9 22-9 7 0 13 2 18 6l30 21c11-5 23-10 34-14l6-36c3-15 16-26 31-26l46 0c15 0 28 11 31 26l6 36c12 4 24 9 35 15l29-21c6-4 12-6 19-6 8 0 16 3 22 9l32 32c11 11 12 28 3 41l-21 29c6 12 11 23 15 35l36 6c15 3 26 16 26 31l0 46c0 15-11 28-26 31z m-3-77c0-1-1-2-2-2l-45-8c-6-1-10-5-11-10-5-16-11-31-19-45-3-5-3-11 1-16l26-37c1-1 1-3 0-4l-32-32c-1 0-2 0-2 0-1 0-1 0-2 0l-37 26c-5 4-11 4-16 1-14-8-29-14-45-19-5-1-9-5-10-11l-8-45c0-1-1-2-2-2l-46 0c-1 0-2 1-2 2l-8 45c-1 6-5 10-10 11-16 4-30 11-44 18-2 2-5 2-7 2-3 0-6 0-9-2l-37-27c-1 0-1 0-2 0 0 0-1 0-2 0l-32 32c-1 1-1 3 0 4l26 37c4 5 4 11 1 16-8 14-15 29-19 44-1 6-6 10-12 11l-45 8c-1 0-2 1-2 2l0 45c0 2 1 3 2 3l45 8c6 1 10 5 11 10 4 16 11 31 19 45 3 5 2 11-1 16l-27 37c0 1 0 3 1 4l32 32c0 1 1 1 2 1 0 0 1 0 1-1l37-26c5-3 11-4 16-1 14 9 29 15 45 19 5 2 9 6 10 12l8 45c0 1 1 2 3 2l45 0c1 0 2-1 3-2l7-45c1-5 5-10 11-11 16-4 31-11 46-19 5-3 11-3 15 0l37 27c1 0 1 0 2 0 0 0 1 0 2 0l32-32c1-1 1-3 0-4l-26-37c-4-5-4-11-1-16 8-14 15-29 19-45 1-5 6-9 11-10l45-8c1 0 2-1 2-2l0-46z m-227 134c-61 0-110-50-110-111 0-61 49-110 110-110 61 0 111 49 111 110 0 61-50 111-111 111z m0-193c-45 0-82 37-82 82 0 45 37 82 82 82 45 0 82-37 82-82 0-45-37-82-82-82z"/>
<glyph glyph-name="stream" unicode="&#79;" d="M0 221l0-129c0-31 28-53 58-53l266 0c30 0 52 22 52 53l0 1 98-48c2-1 3-2 5-2 19 0 33 16 33 36l0 167c0 20-13 36-32 36-2 0-4-1-5-2l-97-49c-5 25-26 44-52 45 27 20 45 52 45 88 0 60-49 109-109 109-49 0-91-33-104-77-15 15-36 24-59 24-45 0-82-37-82-83 0-25 9-47 27-62-24-6-44-28-44-54z m480 34c4-1 6-5 6-9l0-167c0-4-2-8-6-9l-104 52 0 81z m-307 48c7-9 15-18 25-24l-43 0c7 6 14 15 18 24z m6 61c0 46 37 83 83 83 46 0 83-37 83-83 0-46-37-83-83-83-39 0-71 27-80 63-1 5-2 9-3 13 0 2 0 5 0 7z m-80 30c26 0 48-17 55-41 0-4 1-9 2-13 0-1 0-2 0-3 0-31-25-56-57-56-31 0-56 25-56 56 0 32 25 57 56 57z m251-300c0-16-13-29-29-29l-266 0c-16 0-29 13-29 29l0 130c0 16 13 29 29 29l266 0c16 0 29-13 29-29z"/>
<glyph glyph-name="video" unicode="&#80;" d="M256 486c127 0 230-103 230-230 0-127-103-230-230-230-127 0-230 103-230 230 0 127 103 230 230 230m0 26c-141 0-256-115-256-256 0-141 115-256 256-256 141 0 256 115 256 256 0 141-115 256-256 256z m102-228l-136 89c-24 16-43 6-43-23l0-188c0-29 19-39 43-24l136 90c24 15 24 40 0 56z m-18-38l-121-79c-8-5-14-1-14 8l0 162c0 10 6 13 14 8l121-80c8-5 8-13 0-19z"/>
<glyph glyph-name="development" unicode="&#72;" d="M482 145l0 312-452 0 0-312-30 0 0-90 512 0 0 90z m-422 282l392 0 0-282-392 0z m422-342l-452 0 0 30 452 0 0-30z m-278 255l-21 21-76-75 76-75 21 21-54 54z m125 21l-21-21 54-54-54-54 21-21 76 75z m-105-160l35 175 29-5-35-175z"/>
<glyph glyph-name="analytics" unicode="&#73;" d="M458 377c-30 0-55-24-55-54 0-11 4-21 9-30l-59-58c-8 5-18 8-29 8-12 0-22-3-31-9l-59 59c5 9 9 19 9 30 0 30-25 54-55 54-30 0-54-24-54-54 0-11 3-21 9-30l-59-58c-9 5-19 8-30 8-30 0-54-24-54-54 0-30 24-54 54-54 30 0 55 24 55 54 0 11-4 21-9 30l59 58c8-5 18-8 29-8 11 0 21 3 30 8l60-59c-6-9-9-18-9-29 0-30 25-54 55-54 30 0 54 24 54 54 0 11-3 21-9 30l59 58c9-5 19-8 30-8 30 0 54 24 54 54 0 30-24 54-54 54z m-404-220c-17 0-32 14-32 32 0 18 15 32 32 32 18 0 32-14 32-32 0-18-14-32-32-32z m134 134c-17 0-32 14-32 32 0 18 15 32 32 32 18 0 32-14 32-32 0-18-14-32-32-32z m136-134c-18 0-32 14-32 32 0 18 14 32 32 32 17 0 32-14 32-32 0-18-15-32-32-32z m134 134c-18 0-32 14-32 32 0 18 14 32 32 32 17 0 32-14 32-32 0-18-15-32-32-32z m-281-52c-5 5-12 5-16 0l-23-23c-4-4-4-11 0-15 2-3 5-4 8-4 3 0 6 1 8 4l23 22c4 5 4 12 0 16z m197 72c-4 4-12 4-16 0l-23-23c-4-4-4-11 0-16 2-2 5-3 8-3 3 0 6 1 8 3l23 23c4 5 4 12 0 16z"/>
<glyph glyph-name="add" unicode="&#103;" d="M458 512l-404 0c-30 0-54-24-54-54l0-404c0-30 24-54 54-54l404 0c30 0 54 24 54 54l0 404c0 30-24 54-54 54z m28-458c0-16-12-28-28-28l-404 0c-16 0-28 12-28 28l0 404c0 16 12 28 28 28l404 0c16 0 28-12 28-28z m-133 215l-84 0 0 84c0 7-6 13-13 13-7 0-13-6-13-13l0-84-84 0c-7 0-13-6-13-13 0-7 6-13 13-13l84 0 0-84c0-7 6-13 13-13 7 0 13 6 13 13l0 84 84 0c7 0 13 6 13 13 0 7-6 13-13 13z"/>
<glyph glyph-name="2-m-add" unicode="&#103;" d="M458 512l-404 0c-30 0-54-24-54-54l0-404c0-30 24-54 54-54l404 0c30 0 54 24 54 54l0 404c0 30-24 54-54 54z m28-458c0-16-12-28-28-28l-404 0c-16 0-28 12-28 28l0 404c0 16 12 28 28 28l404 0c16 0 28-12 28-28z m-133 215l-84 0 0 84c0 7-6 13-13 13-7 0-13-6-13-13l0-84-84 0c-7 0-13-6-13-13 0-7 6-13 13-13l84 0 0-84c0-7 6-13 13-13 7 0 13 6 13 13l0 84 84 0c7 0 13 6 13 13 0 7-6 13-13 13z"/>
<glyph glyph-name="arrow-down" unicode="&#97;" d="M481 375c-6 6-16 6-23 0l-202-203-203 203c-6 6-16 6-23 0-6-7-6-17 0-23l214-214c3-3 7-5 12-5 4 0 8 2 11 5l214 214c7 6 7 16 0 23z"/>
<glyph glyph-name="docs" unicode="&#98;" d="M78 452c0 0 0 0 0 0-5 0-9-2-13-6-3-3-5-8-5-13l0-274c0-11 8-19 18-19 43 0 114-9 164-60l0 287c0 4-1 7-3 9-40 66-118 75-161 76z m374-293l0 274c0 5-2 10-5 13-4 4-8 6-13 6 0 0 0 0 0 0-43-1-121-10-161-76-2-2-3-5-3-9l0-287c50 51 121 60 164 60 10 0 18 8 18 19z m42 229l-14 0 0-229c0-26-21-47-46-47-36 0-96-7-138-47 73 18 150 6 194-4 5-1 11 0 15 3 4 4 7 9 7 15l0 291c0 10-8 18-18 18z m-462-229l0 229-14 0c-10 0-18-8-18-18l0-291c0-6 3-11 7-15 4-3 10-4 15-3 44 10 121 22 194 4-42 40-102 47-138 47-25 0-46 21-46 47z"/>
<glyph glyph-name="edit" unicode="&#81;" d="M421 256c-11 0-19-8-19-18l0-183c0-10-8-18-18-18l-329 0c-10 0-18 8-18 18l0 366c0 10 8 18 18 18l219 0c10 0 19 8 19 18 0 10-9 18-19 18l-219 0c-30 0-55-24-55-54l0-366c0-30 25-55 55-55l329 0c30 0 55 25 55 55l0 183c0 10-8 18-18 18z m71 235c-14 14-31 21-50 21-19 0-36-7-49-21l-241-240c-2-2-4-5-5-8l-36-109c-4-10 2-20 11-23 2-1 4-1 6-1 2 0 4 0 6 1l109 36c3 1 6 3 8 5l240 240c28 28 28 72 1 99z m-26-73l-238-237-71-24 24 71 237 238c13 13 35 13 48 0 6-7 9-15 9-24 0-9-3-17-9-24z"/>
<glyph glyph-name="ad" unicode="&#109;" d="M469 491l-426 0c-24 0-43-19-43-43l0-299c0-23 19-42 43-42l149 0c0-17-4-45-16-57-4-5-9-7-16-7-6 0-11-5-11-11 0-6 5-11 11-11l192 0c6 0 11 5 11 11 0 6-5 11-11 11-7 0-12 2-16 7-12 12-16 40-16 57l149 0c24 0 43 19 43 42l0 299c0 24-19 43-43 43z m-271-448c13 19 15 48 15 64l86 0c0-16 2-45 15-64z m293 106c0-11-10-21-22-21l-426 0c-12 0-22 10-22 21l0 43 470 0z m0 64l-470 0 0 235c0 12 10 21 22 21l426 0c12 0 22-9 22-21l0-235z m-214-53c0-12-9-21-21-21-12 0-21 9-21 21 0 12 9 21 21 21 12 0 21-9 21-21z m-64 224c-17 0-32-14-32-32l0-64c0-6 5-11 11-11 6 0 11 5 11 11l0 11 21 0 0-11c0-6 5-11 11-11 6 0 10 5 10 11l0 64c0 18-14 32-32 32z m11-64l-21 0 0 32c0 6 4 11 10 11 6 0 11-5 11-11z m75 64l-22 0c-6 0-10-5-10-11l0-85c0-6 4-11 10-11l22 0c17 0 32 15 32 32l0 43c0 18-15 32-32 32z m10-75c0-6-4-10-10-10l-11 0 0 64 11 0c6 0 10-5 10-11l0-43z"/>
<glyph glyph-name="check" unicode="&#75;" d="M163 143l-122 122-41-41 163-163 349 349-41 41z"/>
<glyph glyph-name="cash-in" unicode="&#82;" d="M226 366c6 0 10 4 10 10 0 6-4 10-10 10-6 0-10-4-10-10 0-6 4-10 10-10z m0 40c6 0 10 4 10 10l0 46c0 6-4 10-10 10-6 0-10-4-10-10l0-46c0-6 4-10 10-10z m-40-40c6 0 10 4 10 10l0 86c0 6-4 10-10 10-6 0-10-4-10-10l0-86c0-6 4-10 10-10z m-109-84c-14-13-21-31-21-49l0-223c0-6 4-10 10-10l180 0c6 0 10 4 10 10l0 59c36 15 60 51 60 90l0 7 70 0c6 0 10 4 10 10l0 256 20 0c22 0 40 18 40 40 0 22-18 40-40 40l-300 0c-22 0-40-18-40-40 0-22 18-40 40-40l20 0 0-90z m219-123c0-33-21-63-53-74-4-1-7-5-7-9l0-56-160 0 0 213c0 13 5 25 15 35l45 45 0-56-5-6c-4-4-4-10 0-14 4-4 10-4 14 0 14 15 52 53 70 70 11 12 28 14 40 5 16-11 17-33 4-45 0 0-40-41-59-60-8-7-11-19-7-29 2-7 3-15 3-22 0-20-9-39-24-53-4-3-4-9-1-14 4-4 10-4 14-1 20 18 31 42 31 68 0 3 0 7-1 10l81 0z m0 27l0 306 40 0 0-306z m-85 0c0 3 1 5 3 7 19 19 59 59 59 59 1 1 2 2 3 4l0-70z m65 134c-3 3-6 6-9 8-20 15-48 12-66-6l-45-45 0 60c0 0 0 0 0 0l0 155 120 0z m100-134l-20 0 0 306 20 0z m60 286c0-11-9-20-20-20l-20 0 0 40 20 0c11 0 20-9 20-20z m-320-20c-11 0-20 9-20 20 0 11 9 20 20 20l20 0 0-40z"/>
<glyph glyph-name="top-up" unicode="&#84;" d="M342 184c-12 0-22 8-22 19 0 10 10 19 22 19 12 0 22-9 22-19 0-6 4-10 10-10 5 0 10 4 10 10 0 18-14 33-32 38l0 5c0 5-5 10-10 10-6 0-10-5-10-10l0-5c-18-5-32-20-32-38 0-22 19-39 42-39 12 0 22-9 22-19 0-11-10-19-22-19-12 0-22 8-22 19 0 5-5 10-10 10-6 0-10-5-10-10 0-19 14-34 32-38l0-5c0-5 4-10 10-10 5 0 10 5 10 10l0 5c18 4 32 19 32 38 0 21-19 39-42 39z m109 59c-13 20-31 37-53 47-5 3-11 1-13-4-2-5 0-11 5-14 38-18 62-57 62-99 0-18-4-36-13-52-2-4-1-11 4-13 2-1 3-1 5-1 4 0 7 2 9 5 10 19 15 40 15 61 0 25-7 49-21 70z m-93 60l-1 0c-6 0-10-4-10-10 0-6 4-10 10-10l1 0c0 0 0 0 0 0 5 0 10 4 10 10 0 5-5 10-10 10z m-64-229c-38 18-62 57-62 99 0 18 4 36 13 52 2 4 1 11-4 13-5 3-11 1-14-4-10-19-15-40-15-61 0-25 7-49 21-70 13-20 31-37 53-47 1-1 3-1 4-1 4 0 7 2 9 5 2 5 0 11-5 14z m33-11l-1 0c-5 0-10-4-10-10 0-5 5-10 10-10l1 0c6 0 10 4 10 10 0 6-4 10-10 10z m60 274c-1 3-2 5-4 8l26 0c25 0 46 21 46 46 0 25-21 46-46 46l-80 0c5 7 8 16 8 26 0 25-21 46-46 46l-245 0c-25 0-46-21-46-46 0-25 21-46 46-46l80 0c-5-7-8-16-8-26 0-10 3-19 8-26l-26 0c-25 0-46-21-46-46 0-15 7-28 17-36-10-8-17-21-17-36 0-15 7-28 17-36-10-8-17-21-17-36 0-15 7-28 17-36-10-8-17-21-17-36 0-25 21-46 46-46l118 0c31-33 75-54 124-54 94 0 170 76 170 170 0 78-53 144-125 164z m22 80c14 0 26-12 26-26 0-14-12-26-26-26l-245 0c-14 0-26 12-26 26 0 14 12 26 26 26z m-363 20c-14 0-26 12-26 26 0 14 12 26 26 26l245 0c14 0 26-12 26-26 0-14-12-26-26-26z m54-92l245 0c4 0 8-1 11-3-4 1-9 1-14 1-47 0-90-19-120-50l-122 0c-14 0-26 12-26 26 0 14 12 26 26 26z m0-72l105 0c-12-16-21-33-26-52l-79 0c-14 0-26 12-26 26 0 14 12 26 26 26z m0-72l74 0c-1-9-2-18-2-28 0-8 1-16 2-24l-74 0c-14 0-26 12-26 26 0 14 12 26 26 26z m0-124c-14 0-26 12-26 26 0 14 12 26 26 26l78 0c5-19 13-36 24-52z m242-54c-83 0-150 67-150 150 0 83 67 150 150 150 83 0 150-67 150-150 0-83-67-150-150-150z"/>
<glyph glyph-name="online-video" unicode="&#86;" d="M486 162l-460 0c-14 0-26 12-26 27l0 247c0 14 12 26 26 26l460 0c14 0 26-12 26-26l0-247c0-15-12-27-26-27z m-460 279c-3 0-5-2-5-5l0-247c0-3 2-5 5-5l460 0c3 0 5 2 5 5l0 247c0 3-2 5-5 5z m175-209c-3 2-5 5-5 9l0 142c0 4 2 8 5 9 4 2 8 2 11 0l100-71c3-2 4-5 4-9 0-3-1-6-4-8 0 0-75-54-100-71-2-2-5-4-11-1z m16 131l0-101 71 50z m284-261l-201 0c-5 18-21 32-41 32-19 0-36-14-40-32l-208 0c-6 0-11-4-11-10 0-6 5-11 11-11l208 0c4-18 21-31 40-31 20 0 36 13 41 31l201 0c6 0 11 5 11 11 0 6-5 10-11 10z m-242-31c-11 0-20 10-20 21 0 11 9 21 20 21 12 0 21-10 21-21 0-11-9-21-21-21z"/>
<glyph glyph-name="bank" unicode="&#87;" d="M424 179c0 4-1 8-3 11l-20 32c-3 5-4 10-4 16l0 97c0 64-51 115-115 115l-53 0c-63 0-114-51-114-115l0-97c0-6-2-11-4-16l-20-32c-2-3-3-7-3-11 0-11 9-20 21-20l294 0c11 0 21 9 21 20z m-142 271l45 62-142 0 44-62 0-17 53 0z m139-260l-20 32c-3 5-4 10-4 16l0 97c0 26-8 51-24 71-24-130-106-205-184-247l214 0c11 0 21 9 21 20 0 4-1 8-3 11z m-121 128l0 5c0 17-13 30-30 30l-5 0 0 18-18 0 0-18-6 0c-16 0-29-13-29-29 0-13 7-24 19-28l16-6 0-34-6 0c-6 0-12 5-12 12l0 6-17 0 0-6c0-16 13-30 29-30l29 0c17 0 30 14 30 30 0 12-8 23-19 28l-16 6 0 33 5 0c7 0 12-5 12-12l0-5z m-25-39c4-2 7-6 7-11 0-7-5-12-12-12l-5 0 0 27z m-28 29l-10 4c-4 2-8 6-8 11 0 7 6 12 12 12l6 0z m185 116c-3 18-17 32-35 35 18 3 32 17 35 35 3-18 18-32 36-35-18-3-33-17-36-35z m-397-177c-3 18-17 32-35 35 18 3 32 18 35 36 3-18 17-33 36-36-19-3-33-17-36-35z m473-43c-7 12-23 17-35 10l-125-54c-3-1-5-1-7-1l-156 0c-9 0-17 8-17 18 0 9 8 17 17 17l71 0c29 0 53 24 53 53l-147 0c-24 0-47-11-63-30l-55-67 62-114 240 58c11 2 21 6 30 10l124 64c12 7 16 24 8 36z m-421-132l19-36 240 58c11 2 21 6 30 10l67 35c-111-34-259-55-356-67z m-87 87l0-159 115 0 26 27-106 158z m0-159l115 0 26 27-19 29c-39-17-80-29-122-37z m97 44c0-10-8-17-18-17-9 0-17 7-17 17 0 10 8 18 17 18 10 0 18-8 18-18z"/>
<glyph glyph-name="1-t-logout" unicode="&#99;" d="M506 268l-55 39c-10 7-24 0-24-12l0-24-263 0c-8 0-15-7-15-15 0-8 7-15 15-15l263 0 0-24c0-12 14-19 24-12l55 39c8 6 8 18 0 24z m-76-108c-7 4-16 1-20-6-35-61-101-102-176-102-113 0-204 92-204 204 0 112 91 204 204 204 75 0 141-41 176-102 4-7 13-10 20-6 8 4 10 14 6 21-41 70-116 117-202 117-130 0-234-105-234-234 0-129 104-234 234-234 86 0 161 47 202 117 4 7 2 17-6 21z"/>
<glyph glyph-name="2-m-img" unicode="&#113;" d="M0 464l0-416 512 0 0 416z m480-384l-448 0 0 352 448 0z m-128 272c0-27 21-48 48-48 27 0 48 21 48 48 0 27-21 48-48 48-27 0-48-21-48-48z m96-240l-384 0 96 256 128-160 64 48z"/>
<glyph glyph-name="address-book" unicode="&#88;" d="M416 351c5 0 10 4 10 10l0 30c0 6-5 10-10 10l-24 0 0 9c0 9-7 16-16 16l-274 0c-9 0-16-7-16-16l0-308c0-9 7-16 16-16l274 0c9 0 16 7 16 16l0 9 24 0c5 0 10 5 10 10l0 30c0 6-5 11-10 11l-24 0 0 29 24 0c5 0 10 4 10 10l0 30c0 6-5 11-10 11l-24 0 0 29 24 0c5 0 10 4 10 10l0 30c0 6-5 10-10 10l-24 0 0 30 24 0z m-97-165c0-6-4-11-9-11l-142 0c-5 0-10 5-10 11l0 44c0 4 3 8 6 10l56 26c-13 8-22 24-22 42 0 27 18 48 41 48 23 0 41-21 41-48 0-18-9-34-21-42l55-26c3-2 5-6 5-10l0-44z"/>
<glyph glyph-name="calendar-1" unicode="&#90;" d="M493 412c-3 16-11 31-22 42-3 3-7 7-12 9l0 1c-1 1-1 1-2 1-2 1-3 2-5 3l-1 0c-11 6-24 9-39 9l-34 0 0 24c0 6-5 11-11 11-5 0-10-4-10-11l0-23-201 0 0 23c0 6-5 11-11 11-5 0-10-4-10-11l0-23-35 0c-10 0-21-2-30-6-11-4-21-10-28-18-5-5-9-10-12-15-3-5-6-11-9-17-1-3-2-7-2-10-1-6-2-11-2-17l0-313c0-23 10-43 24-58 15-15 36-24 58-24l314 0c23 0 43 9 58 24 15 15 24 36 24 58l0 313c0 6-1 11-2 17z m-454-16c0 4 0 8 1 12 0 4 2 8 3 12 3 5 5 9 8 13 2 3 3 4 5 6 3 4 7 7 11 9 10 6 20 9 32 9l35 0 0-23c0-5 4-10 10-10 6 0 11 4 11 10l0 23 203 0 0-23c0-5 5-10 11-10 5 0 10 4 10 10l0 23 35 0c12 0 23-3 32-9 4-2 8-5 11-9 8-8 15-19 17-31 0-4 1-8 1-12l0-46-436 0z m436-313c0-18-6-33-17-44-12-12-27-18-44-18l-314 0c-17 0-32 6-43 18-11 11-18 26-18 43l0 247 436 0z"/>
<glyph glyph-name="api" unicode="&#48;" d="M122 334l-44 0c-18 0-33-15-33-33l0-112c0-6 4-11 11-11 6 0 11 5 11 11l0 34 67 0 0-34c0-6 5-11 11-11 6 0 11 5 11 11l0 112c0 18-15 33-34 33z m12-89l-67 0 0 56c0 6 5 11 11 11l44 0c7 0 12-5 12-11z m133 89l-44 0c-7 0-12-5-12-11l0-134c0-6 5-11 12-11 6 0 11 5 11 11l0 34 33 0c31 0 56 25 56 55 0 31-25 56-56 56z m0-89l-33 0 0 67 33 0c19 0 34-15 34-34 0-18-15-33-34-33z m189-45l-33 0 0 112 33 0c7 0 11 5 11 11 0 6-4 11-11 11l-89 0c-6 0-11-5-11-11 0-6 5-11 11-11l34 0 0-112-34 0c-6 0-11-5-11-11 0-6 5-11 11-11l89 0c7 0 11 5 11 11 0 6-4 11-11 11z m23 245l-174 0-41 41c-4 5-12 5-16 0l-41-41-174 0c-18 0-33-15-33-33l0-34c0-6 5-11 11-11 6 0 11 5 11 11l0 34c0 6 5 11 11 11l178 0c3 0 6 1 8 3l37 37 37-37c2-2 5-3 8-3l178 0c6 0 11-5 11-11l0-34c0-6 5-11 11-11 6 0 11 5 11 11l0 34c0 18-15 33-33 33z m22-300c-6 0-11-5-11-11l0-34c0-6-5-11-11-11l-178 0c-3 0-6-1-8-3l-37-37-37 37c-2 2-5 3-8 3l-178 0c-6 0-11 5-11 11l0 34c0 6-5 11-11 11-6 0-11-5-11-11l0-34c0-18 15-33 33-33l174 0 41-41c2-3 5-4 8-4 3 0 6 1 8 4l41 41 174 0c18 0 33 15 33 33l0 34c0 6-5 11-11 11z"/>
<glyph glyph-name="cardiogram" unicode="&#49;" d="M435 435l-51 0c0 14-11 26-26 26l-25 0 0 25c0 15-12 26-26 26l-102 0c-14 0-26-11-26-26l0-25-25 0c-15 0-26-12-26-26l-51 0c-14 0-26-11-26-25l0-384c0-15 12-26 26-26l358 0c14 0 26 11 26 26l0 384c0 14-12 25-26 25z m-281 0l51 0 0 51 102 0 0-51 51 0 0-25-204 0z m281-409l-358 0 0 384 51 0c0-15 11-26 26-26l204 0c15 0 26 11 26 26l51 0z m-38 179l-42 0-23 68c-2 5-7 9-12 9-6-1-11-4-12-10l-38-130-40 181c-1 5-6 9-11 10-6 0-11-3-13-8l-48-120-43 0c-7 0-13-6-13-13 0-7 6-13 13-13l51 0c6 0 10 3 12 8l36 90 42-190c2-6 7-10 12-10 1 0 1 0 1 0 6 0 11 4 12 9l40 139 12-37c2-5 7-9 13-9l51 0c7 0 13 6 13 13 0 7-6 13-13 13z"/>
<glyph glyph-name="cloud-computing" unicode="&#50;" d="M406 317c-1 78-65 141-143 141-35 0-69-13-95-36-23-20-39-48-45-78-1 0-1 0-2 0-67 0-121-54-121-121 0-67 54-121 121-121l85 0c6 0 11 5 11 11 0 6-5 11-11 11l-85 0c-55 0-99 44-99 99 0 55 44 100 99 100 3 0 6-1 10-1 6-1 11 4 12 9 4 29 18 56 40 75 22 20 50 30 80 30 67 0 121-54 121-121 0-3 0-5 0-8l0-1c-1-3 1-6 3-8 2-3 5-4 9-3 3 0 6 0 8 0 48 0 86-38 86-86 0-47-38-85-86-85l-89 0c-6 0-11-5-11-11 0-6 5-11 11-11l89 0c60 0 108 48 108 107 0 59-47 107-106 108z m-143 90c-46 0-85-34-91-80-1-6 3-11 9-12 1 0 1 0 2 0 5 0 10 4 10 9 5 35 35 61 70 61 6 0 11 5 11 11 0 6-5 11-11 11z m49-215l-39 35c-7 7-17 7-24 0l-40-35c-5-4-5-11-1-15 4-5 11-5 15-1l27 23 0-134c0-6 5-11 11-11 6 0 11 5 11 11l0 134 26-23c2-2 5-3 7-3 3 0 6 1 8 4 4 4 4 11-1 15z"/>
<glyph glyph-name="quickstart" unicode="&#51;" d="M50 226c39 56 62 92 79 119-65-5-127-86-127-86l43-43c1 4 3 7 5 10z m167-181l42-43c0 0 81 62 86 127-27-17-63-40-119-79-3-2-6-4-9-5z m-65 22c-8-3-15-6-22-9-20-6-41-11-62-14-9-1-18-2-27-3 1 1 1 3 1 4 2 21 5 42 10 63 3 10 6 20 9 29 2 6 5 12 8 18l-5 5c-10-7-19-16-27-26-12-15-20-32-26-50-6-19-10-39-11-59 0-3 0-5 0-8 1-4 2-7 5-10 2-3 5-5 9-6 3-1 6-1 9-1 18 0 36 3 54 9 32 9 64 27 83 55l-5 5c-1-1-2-1-3-2z m355 440c0 0 0 0 0 0-4 3-8 5-13 5 0 0 0 0 0 0-57-1-198-12-272-86-34-34-45-52-69-91-18-28-42-66-85-128-5-7-4-17 2-23l114-114c4-4 8-5 13-5 3 0 7 1 10 3 62 43 100 67 128 85 39 24 57 35 91 69 74 74 85 215 86 272 0 5-2 9-5 13z m-132-216c-23-23-61-23-84 0-23 23-23 61 0 84 23 23 61 23 84 0 23-23 23-61 0-84z"/>
<glyph glyph-name="minimize" unicode="&#52;" d="M494 512l-476 0c-10 0-18-8-18-18l0-476c0-10 8-18 18-18l476 0c10 0 18 8 18 18l0 476c0 10-8 18-18 18z m-17-477l-442 0 0 442 442 0z m-340 203l238 0c10 0 18 8 18 18 0 10-8 18-18 18l-238 0c-10 0-18-8-18-18 0-10 8-18 18-18z"/>
<glyph glyph-name="question-mark" unicode="&#53;" d="M253 512c-142-2-255-118-253-259 2-142 118-255 259-253 142 2 255 118 253 259-2 142-118 255-259 253z m-1-412l-2 0c-21 1-37 17-36 38 1 21 16 37 37 37l2 0c22-1 37-17 36-39 0-21-16-36-37-36z m91 182c-5-7-16-16-30-27l-16-11c-8-7-14-13-15-19-2-5-3-6-3-16l0-3-60 0 1 5c0 21 1 33 9 43 14 16 44 35 45 36 4 3 8 7 10 11 7 8 10 15 10 22 0 9-3 18-9 25-5 8-15 11-29 11-14 0-24-4-30-13-6-10-9-20-9-30l0-3-62 0 1 3c1 38 15 65 40 81 15 10 35 15 57 15 30 0 55-7 75-22 20-14 30-36 30-64 0-16-5-31-15-44z"/>
<glyph glyph-name="banknote" unicode="&#83;" d="M511 250c-1 2-2 3-4 4l1 0-330 200c-3 2-7 2-9 0l-164-87c-4-2-6-8-4-12 1-2 2-3 3-4l331-205c1-1 3-2 5-2 1 0 3 1 4 2l163 92c5 3 6 8 4 12z m-171-86l-313 194 146 78 312-190z m171 43c-3 4-8 5-13 3l1 0-159-90-326 203c-4 2-10 1-13-3-2-4-1-10 3-13l331-205c1-1 3-1 5-1 1 0 3 0 4 1l163 92c5 3 6 8 4 13z m-2-44c-2 3-6 4-10 3l-159-90-326 203c-4 3-10 1-13-3-2-4-1-10 3-12l331-206c1-1 3-1 5-1 1 0 3 0 4 1l163 93c4 3 5 8 2 12z m-201 185c-3 4-9 5-13 2 0-1 0-1-1-1l-9-9c-3 3-7 5-10 7-5 2-10 3-16 2-4 0-9-2-12-6-4-3-6-7-7-12-1-4 0-9 2-14 1-4 3-8 4-11l-18-17c0 1 0 2 0 2-1 5 0 9 1 13 1 2 1 4 1 6 0 2-1 4-2 6-2 2-4 3-7 3-2 0-4-1-6-2-3-3-5-7-6-11-1-6 0-11 2-16 1-4 3-8 5-11l-10-9c-4-3-4-9-1-13 2-2 4-3 7-3l0 0c2 0 4 1 6 2l10 9c3-3 7-6 11-8 11-6 24-4 32 4 3 3 5 6 6 10 1 5 1 9 0 14-2 6-4 11-7 17l0 0 15 14c0-3 0-5 0-8-1-2-1-5-1-8 0-2 1-4 3-6 1-2 4-3 6-4 3 0 5 1 7 3 2 1 3 4 4 6 1 4 1 7 0 10-1 5-2 9-4 12-1 2-2 4-3 6l9 9c4 3 5 8 2 12z m-55-73c-3-2-6-2-9-1-1 0-3 1-5 2l15 13c1-2 2-3 2-5 1-3-1-7-3-9z m8 44c0 1 0 3 0 4-1 3 0 5 2 7 2 2 5 2 8 1 0 0 1-1 2-1z"/>
<glyph glyph-name="rich" unicode="&#85;" d="M142 426c3-10 12-16 23-16l63 0c11 0 20 6 24 16 3 10 13 32 21 38 7 6 11 16 9 25-2 8-8 15-16 18-26 9-49 6-66-8-3-3-7-3-11 0-17 14-40 17-65 8-9-3-15-10-17-18-1-9 2-19 9-25 9-7 23-30 26-38z m-18 59c0 2 1 5 5 6 8 3 15 4 22 4 11 0 20-3 28-9 9-8 22-8 32 0 12 10 29 12 49 5 4-1 5-4 5-6 1-3 0-6-3-8-13-11-24-39-27-45-1-3-4-5-7-5l-63 0c-3 0-6 2-7 5-4 10-20 36-31 45-2 2-4 5-3 8z m145-92c0 4-4 8-8 8-2 0-3 0-5-1-1 1-2 1-4 1l-102 0c-5 0-9-4-9-8 0-5 4-9 9-9l102 0 0-9-94 0c-5 0-8-3-8-8 0-5 3-9 8-9l102 0c8-6 17-10 27-10 11 0 22 5 30 13 4 3 4 9 0 12-3 3-9 3-12 0-9-10-26-10-36 0z m-85-103c-55 0-120-69-120-128 0-5 4-8 9-8 5 0 8 3 8 8 0 49 58 111 103 111 4 0 8 4 8 9 0 4-4 8-8 8z m239-51c-9 0-20-1-30-2-12 21-27 39-46 54l-61 42c-11 8-27 17-45 17l-67 0c-16 0-32-6-45-16l-60-44c-63-49-83-136-48-206 13-25 35-56 64-58 3 0 5 0 7 0l167 0c12-16 31-26 53-26 24 0 46 13 58 33 15-5 34-7 53-7 41 0 85 13 85 34l0 47-1 0c1 1 1 2 1 4l0 98c0 24-54 30-85 30z m67-30c0 0 0 0 0 0-1-1-1-1-1-1-1-1-2-1-2-1-1-1-2-1-2-1-1-1-2-1-3-2-1 0-2 0-3 0-1-1-3-1-4-2-1 0-3 0-4-1-1 0-3 0-5-1-1 0-3 0-4-1-2 0-5 0-7-1-1 0-3 0-4 0-3-1-6-1-9-1-2 0-3 0-4 0-5-1-10-1-15-1-6 0-11 0-15 1-2 0-3 0-5 0-3 0-6 0-8 1-2 0-3 0-5 0-2 1-4 1-6 1-2 1-3 1-5 1-1 1-3 1-5 1-1 1-2 1-3 1-2 1-3 1-4 2-1 0-2 0-3 0-1 1-2 1-3 2-1 0-2 0-2 1-1 0-2 0-2 1-1 0-1 0-1 1-1 0-1 0-1 0 0 0 0 0 0 0 1 1 1 1 2 1 0 1 1 1 2 2 1 0 1 0 2 1 1 0 1 0 2 0 1 1 2 1 3 1 1 1 2 1 2 1 2 1 4 1 7 2 1 0 2 0 3 1 2 0 3 0 5 1 1 0 3 0 5 0 9 2 21 3 35 3 40 0 63-8 67-13z m-130-70c1 0 2-1 3-1 1-1 3-1 4-2 1 0 2 0 3 0 1-1 3-2 5-2 1 0 1 0 2-1 3 0 5-1 8-1 1 0 1-1 2-1 2 0 4 0 6-1 1 0 2 0 3 0 2 0 4-1 6-1 1 0 2 0 3 0 2 0 4-1 6-1 1 0 2 0 3 0 3 0 6 0 9 0 3 0 5 0 8 0 1 0 2 0 3 0 2 0 4 1 6 1 1 0 2 0 3 0 2 0 4 1 6 1 1 0 2 0 3 0 2 1 4 1 7 1 0 0 1 0 1 1 3 0 6 1 8 1 1 1 2 1 2 1 2 0 4 1 6 2 1 0 1 0 2 0 2 1 3 1 5 2 1 0 1 1 2 1 2 1 3 1 5 2 0 0 1 0 1 1l0-30c-2-5-24-16-59-18-3 0-6 0-9 0-19 0-38 3-52 8 0 0 0 0 0 0-1 2-2 4-3 5 0 0-1 1-1 1-1 1-2 3-3 4-1 1-1 1-1 2-1 1-2 2-4 3 0 1-1 1-1 2-1 1-2 1-3 2 0 0 0 0-1 1 0 3 0 10 0 20 1-1 1-1 2-1 1-1 3-1 4-2z m-113-96l-155 0c-1 0-3 0-5 0-17 1-35 18-50 49-32 63-14 140 42 185l61 44c9 8 22 12 34 12l67 0c14 0 26-8 35-14l61-42c15-12 28-26 38-42-11-3-21-6-28-11-1 0-1 0-1 0-1-1-2-2-3-3 0 0-1-1-1-1-1-1-1-2-2-2 0-1-1-2-1-2 0-1-1-2-1-2 0-2-1-3-1-5l0-77c-3 1-6 2-9 2 0 0 0 1-1 1-3 0-6 1-9 1 0 0-1 0-1 0-2 0-3 1-5 1-1 0-2-1-3-1-1 0-1 0-2 0-3 0-6 0-9-1 0 0 0 0 0 0-1 0-1 0-1 0-3-1-5-1-8-2-1-1-2-1-3-1-2-1-5-3-7-4-1 0-2-1-3-1-1-1-3-3-4-4-1 0-2-1-3-2-2-1-4-3-6-5-1-1-1-2-2-2-1-2-3-3-4-5 0-1-1-1-2-2-1-3-3-5-4-7 0-1-1-2-1-3-1-2-2-4-3-6 0-1 0-2 0-2-1-3-2-6-2-9-1 0-1-1-1-1 0-1 0-1 0-2 0-2 0-4 0-6 0 0 0-1 0-2 0 0-1 0-1-1 0-1 1-2 1-4 0-7 1-15 3-21z m65-26c-28 0-51 23-51 51 0 0 0 1 0 2 0 1 0 2 0 2 0 1 0 2 0 3 0 1 0 1 0 2 1 2 1 5 2 7 0 0 0 0 0 0 1 2 2 5 3 7 0 0 0 0 0 0 5 9 12 17 21 22 0 0 0 0 0 0 2 1 4 2 6 3 1 0 1 0 2 0 2 1 4 2 6 2 0 0 0 0 0 0 3 1 5 1 8 1 0 0 1 0 1 0 3 0 5 0 8 0 0 0 0 0 0 0 3 0 5-1 8-2 0 0 0 0 0 0 3 0 5-1 8-3 2-1 4-2 6-3l1 0c0-1 0-1 0-1 2-1 3-2 5-3 0-1 0-1 0-1 2-1 3-3 4-4 0 0 0 0 1 0 2-4 5-7 6-11 1-1 1-2 2-2 0-2 1-3 1-5 0 0 1 0 1 0 0-2 0-3 1-5 0 0 0 0 0 0 0-2 0-3 1-5 0 0 0 0 0 0 0-2 0-4 0-6 0-2 0-3 0-5 0 0 0-1 0-1-1-1-1-3-1-5 0 0 0 0 0 0-1-2-1-3-2-5 0 0 0 0 0 0 0-2-1-3-2-5-8-18-26-30-46-30z m111 26c-17 0-33 2-46 6 0 0 0 0 0 0 1 3 2 5 2 8 0 1 0 2 0 2 1 3 1 6 1 9 0 2 0 5 0 7 0 1-1 1-1 2 0 1 0 2 0 3 13-2 28-3 44-3 20 0 50 2 68 11l0-28c-2-5-28-17-68-17z m0 102c-40 0-66 12-69 17 0 10 0 20 0 28 1 0 1 0 1 0 2-1 4-2 7-3 0 0 0 0 0 0 2-1 5-1 7-2 1 0 2 0 3-1 2 0 3 0 5-1 1 0 2 0 3 0 2-1 4-1 6-1 1 0 2 0 2-1 3 0 6 0 9 0 0-1 1-1 2-1 2 0 4 0 6 0 1 0 2 0 3 0 1 0 3-1 5-1 1 0 2 0 2 0 3 0 5 0 8 0 2 0 4 0 7 0 1 0 1 0 2 0 2 0 4 1 6 1 1 0 2 0 3 0 2 0 4 0 6 0 0 0 1 0 2 1 3 0 5 0 8 0 1 1 1 1 2 1 2 0 4 0 6 1 1 0 2 0 3 0 2 1 4 1 6 1 0 1 1 1 2 1 3 1 5 1 8 2 0 0 0 0 0 0 2 1 4 2 6 3 0 0 1 0 1 0l0-27c-2-6-28-18-68-18z"/>
<glyph glyph-name="user" unicode="&#66;" d="M375 393c0-65-53-118-119-118-66 0-119 53-119 118 0 66 53 119 119 119 66 0 119-53 119-119z m-119-178c-119 0-215-96-215-215l430 0c0 119-96 215-215 215z"/>
<glyph glyph-name="youtube" unicode="&#54;" d="M256 512c141 0 256-115 256-256 0-141-115-256-256-256-141 0-256 115-256 256 0 141 115 256 256 256z m-6-208c8 0 14 3 19 6 5 4 7 9 7 15l0 39c0 6-3 11-7 14-5 4-11 6-18 6-8 0-15-2-20-5-5-4-7-9-7-14l0-39c0-7 2-12 7-16 5-3 11-6 19-6z m-9 59c0 1 1 2 3 3 1 1 3 2 6 2 2 0 4-1 6-2 2-1 2-2 2-3l0-37c0-2 0-3-2-4-2-2-4-2-6-2-3 0-5 0-7 2-1 1-2 2-2 4z m62-59c3 0 6 2 9 3 3 2 6 4 9 8l0-9 15 0 0 78-15 0 0-59c-2-2-3-3-5-4-1-2-3-2-4-2-1 0-2 0-3 1-1 1-1 2-1 4l0 60-15 0 0-65c0-5 1-8 2-11 2-2 5-4 8-4z m44-32l-182 0c-29 0-53-23-53-51l0-42c0-28 24-51 53-51l182 0c29 0 53 23 53 51l0 42c0 28-24 51-53 51z m-155-44l-16 0 0-66-16 0 0 66-16 0 0 12 48 0c0 0 0-12 0-12z m48-67l-17 0 0 7c-3-3-6-5-10-6-3-2-6-2-9-2-4 0-7 1-9 3-2 1-3 4-3 8l0 53 17 0 0-49c0-1 0-2 1-3 1-1 2-1 3-1 1 0 3 1 5 1 2 1 4 2 5 4l0 48 17 0c0 0 0-63 0-63z m64 12c0-4-1-8-4-10-3-2-6-3-11-3-4 0-7 0-9 1-3 1-5 2-7 4l0-4-17 0 0 79 17 0 0-26c2 2 4 3 7 4 2 1 5 2 8 2 5 0 9-1 12-4 2-2 4-6 4-11 0 0 0-32 0-32z m64 18l-31 0 0-12c0-3 0-5 1-7 2-1 3-1 6-1 3 0 5 0 6 1 1 1 1 4 1 7l0 3 17 0 0-3c0-6-2-11-6-14-4-3-10-5-18-5-8 0-13 2-18 5-4 3-6 8-6 14l0 27c0 5 2 10 7 13 5 3 11 5 18 5 7 0 13-2 17-5 4-3 6-7 6-13 0 0 0-15 0-15z m-185 113l19 0 0 46 22 66-19 0-12-45-1 0-13 45-19 0 23-68c0 0 0-44 0-44z m97-93l-4-1-3-2 0-36c1-1 2-2 4-2l4-1c2 0 3 0 4 1 1 1 2 2 2 4l0 31c0 2-1 3-2 4-1 1-3 2-5 2z m65 2c-3 0-5 0-6-1-1-2-1-3-1-6l0-6 14 0 0 6c0 3-1 4-2 6-1 1-3 1-5 1z"/>
<glyph glyph-name="youtube1" unicode="&#55;" d="M296 184c0 2-1 4-2 6 0 2-2 3-5 4-3 0-5-1-8-3 0-1-1-2-1-2l0-61 0-1c0 0 1-1 1-1 2-2 4-3 6-4 5-1 8 1 8 5 1 1 1 2 1 3 0 18 0 36 0 54z m0 0c0 2-1 4-2 6 0 2-2 3-5 4-3 0-5-1-8-3 0-1-1-2-1-2l0-61 0-1c0 0 1-1 1-1 2-2 4-3 6-4 5-1 8 1 8 5 1 1 1 2 1 3 0 18 0 36 0 54z m68 92c-72 1-144 1-216 0-25-1-44-21-44-46l0-112c0-25 19-45 44-46 72-2 144-2 216 0 25 1 44 21 44 46l0 112c0 25-19 45-44 46z m-195-168l-20 0 0 117-22 0 0 19 64 0 0-19-22 0z m74 48l0-48-18 0 0 11c-1-1-1-1-1-2-4-4-9-8-14-10-3-1-6-1-9-1-4 1-7 3-8 7-2 3-2 7-2 10 0 14 0 85 0 85l18 0c0 0 0-51 0-76 0-1 0-3 1-4 0-3 3-5 6-4 4 2 6 4 9 7 0 1 0 2 0 2l0 75 18 0c0 0 0-35 0-52z m70-39c-2-7-8-11-15-11-7 0-12 3-16 7-1 1-2 2-2 2l0-7-18 0 0 136 18 0c0-14 0-45 0-45 0 0 1 2 2 3 3 4 6 6 11 7 7 2 15 0 19-9 2-4 3-10 3-15 0-19 0-38 0-57 0-4-1-7-2-11z m68 4c-3-9-10-14-19-16-6-1-12-1-18 2-8 3-12 10-14 18-1 3-1 7-1 11 0 15 0 30 0 45 0 8 2 15 7 21 6 7 14 9 23 9 3 0 5-1 8-2 9-2 13-9 15-18 1-3 1-6 1-10 0-8 0-25 0-25l-35 0 0-26c0-4 4-8 8-8 5 0 8 4 8 8l0 13 19 0c0 0 0-15-2-22z m-17 64c0 5-3 9-8 9-4 0-8-4-8-9l0-14 16 0z m-70 5c0 2-2 3-5 4-3 0-5-1-8-3 0-1-1-2-1-2l0-61 0-1c0 0 1-1 1-1 2-2 4-3 6-4 5-1 8 1 8 5 1 1 1 2 1 3 0 18 0 36 0 54 0 2-1 4-2 6z m47 215l0-101-18 0 0 11c-2-2-4-4-6-6-4-3-8-5-12-6-7-1-13 1-15 8-1 2-2 5-2 8l0 86 19 0 0-77c0-1 0-2 0-3 1-3 3-5 6-4 4 2 7 4 9 7 1 1 1 1 1 2l0 75z m-155-17c-4 17-13 53-13 53l-21 0c0 0 16-54 24-79 0-1 0-1 0-2l0-56 20 0 0 56c0 1 0 1 0 2 8 25 24 79 24 79l-21 0c0 0-9-36-13-53z m60 20c-15 0-27-12-27-27l0-53c0-15 12-27 27-27 15 0 27 12 27 27l0 53c0 15-12 27-27 27z m8-81c0-4-4-8-8-8-5 0-8 4-8 8l0 55c0 4 3 8 8 8 4 0 8-4 8-8z"/>
<glyph glyph-name="facebook2" unicode="&#57;" d="M188 413c0-13 0-71 0-71l-51 0 0-86 51 0 0-256 106 0 0 256 72 0c0 0 6 41 9 87-9 0-80 0-80 0 0 0 0 50 0 59 0 8 11 20 23 20 11 0 35 0 58 0 0 12 0 53 0 90-30 0-64 0-79 0-111 0-109-86-109-99z"/>
<glyph glyph-name="facebook1" unicode="&#56;" d="M448 512l-384 0c-35 0-64-29-64-64l0-384c0-35 29-64 64-64l192 0 0 176-64 0 0 80 64 0 0 64c0 53 43 96 96 96l64 0 0-80-32 0c-18 0-32 2-32-16l0-64 80 0-32-80-48 0 0-176 96 0c35 0 64 29 64 64l0 384c0 35-29 64-64 64z"/>
<glyph glyph-name="calendar" unicode="&#89;" d="M435 435c15 0 27-5 37-15 9-10 14-22 14-36 0 0 0-307 0-307 0-14-5-26-14-36-10-10-22-15-37-15 0 0-358 0-358 0-14 0-26 5-36 15-10 10-15 22-15 36 0 0 0 307 0 307 0 14 5 26 15 36 10 10 22 15 36 15 0 0 23 0 23 0 0 0 0-51 0-51 0 0 82 0 82 0 0 0 0 51 0 51 0 0 149 0 149 0 0 0 0-51 0-51 0 0 82 0 82 0 0 0 0 51 0 51 0 0 22 0 22 0m0-358c0 0 0 205 0 205 0 0-358 0-358 0 0 0 0-205 0-205 0 0 358 0 358 0m-276 409c0 0 0-87 0-87 0 0-36 0-36 0 0 0 0 87 0 87 0 0 36 0 36 0m230 0c0 0 0-87 0-87 0 0-36 0-36 0 0 0 0 87 0 87 0 0 36 0 36 0"/>
<glyph glyph-name="playlist" unicode="&#33;" d="M436 438c-32 11-34 41-34 48l0 1c0 0 0 0 0 0l0 0 0 15-21 0 0-16c0 0 0-1 0-2l0-330c-26 24-70 35-116 23-36-10-66-31-82-58-11-19-14-39-9-58 10-37 50-61 98-61 12 0 25 2 38 5 37 10 66 31 82 58 11 18 14 38 10 56l0 316c7-7 16-13 27-17 42-14 61-49 57-107l20-2c5 68-19 111-70 129z m-61-365c-13-22-39-40-70-48-51-14-101 5-111 41-4 14-1 28 7 42 13 23 39 41 69 49 12 3 23 4 34 4 38 0 70-17 78-46 3-13 1-28-7-42z m-370 439l316 0 0-20-316 0z m0-81l316 0 0-20-316 0z m0-80l316 0 0-20-316 0z m0-81l316 0 0-20-316 0z"/>
<glyph glyph-name="folder-1" unicode="&#34;" d="M491 329l-30 0 0 53c0 13-11 23-24 23l-211 0-42 60-161 0c-13 0-23-10-23-23l0-373 0 0c0-5 2-10 5-13 4-6 10-9 17-9l382 0c10 0 18 7 21 15l87 240 0 1c0 15-9 26-21 26z m-474 113c0 3 3 6 6 6l152 0 42-60 220 0c4 0 7-3 7-6l0-53-335 0c-2 0-3-1-4-1-8-1-15-7-17-15l-71-193z m391-374c0-3-2-4-4-4l-382 0c-2 0-3 1-4 2 0 1-1 2-1 3l87 239c1 2 2 3 5 3l382 0c3 0 4-4 4-7z"/>
<glyph glyph-name="crosshairs" unicode="&#35;" d="M379 219l-32 0c-5 0-9 2-12 6-4 3-6 8-6 13l0 36c0 5 2 10 6 13 3 4 7 6 12 6l32 0c-7 20-17 38-33 53-15 16-33 26-53 33l0-32c0-5-2-9-6-12-3-4-8-6-13-6l-36 0c-5 0-10 2-13 6-4 3-6 7-6 12l0 32c-20-7-38-17-53-33-16-15-26-33-33-53l32 0c5 0 9-2 12-6 4-3 6-8 6-13l0-36c0-5-2-10-6-13-3-4-7-6-12-6l-32 0c7-20 17-38 33-53 15-16 33-26 53-33l0 32c0 5 2 9 6 12 3 4 8 6 13 6l36 0c5 0 10-2 13-6 4-3 6-7 6-12l0-32c20 7 38 17 53 33 16 15 26 33 33 53z m96 55l0-36c0-5-1-10-5-13-4-4-8-6-13-6l-41 0c-7-30-21-57-44-79-22-23-49-37-79-44l0-41c0-5-2-9-6-13-3-4-8-5-13-5l-36 0c-5 0-10 1-13 5-4 4-6 8-6 13l0 41c-30 7-57 21-79 44-23 22-37 49-44 79l-41 0c-5 0-9 2-13 6-4 3-5 8-5 13l0 36c0 5 1 10 5 13 4 4 8 6 13 6l41 0c7 30 21 57 44 79 22 23 49 37 79 44l0 41c0 5 2 9 6 13 3 4 8 5 13 5l36 0c5 0 10-1 13-5 4-4 6-8 6-13l0-41c30-7 57-21 79-44 23-22 37-49 44-79l41 0c5 0 9-2 13-6 4-3 5-8 5-13z"/>
<glyph glyph-name="users" unicode="&#36;" d="M151 256c-31-1-56-13-76-37l-38 0c-15 0-29 4-39 12-11 8-16 19-16 34 0 67 12 101 35 101 1 0 5-2 13-6 7-4 16-8 27-12 12-5 23-7 34-7 13 0 26 3 38 7-1-7-1-13-1-19 0-26 8-51 23-73z m306-182c0-23-7-41-21-54-14-13-32-20-55-20l-250 0c-23 0-41 7-55 20-14 13-21 31-21 54 0 10 0 20 1 30 1 9 2 20 4 31 2 11 4 21 7 31 3 9 8 19 13 28 5 9 11 16 17 23 7 6 15 11 25 15 9 4 20 6 32 6 2 0 6-2 12-6 6-5 13-9 21-14 7-5 18-10 30-14 13-4 26-6 39-6 13 0 26 2 39 6 12 4 23 9 30 14 8 5 15 9 21 14 6 4 10 6 12 6 12 0 23-2 32-6 10-4 18-9 25-15 6-7 12-14 17-23 5-9 10-19 13-28 3-10 5-20 7-31 2-11 3-22 4-31 1-10 1-20 1-30z m-292 365c0-20-8-38-22-52-14-14-31-21-52-21-20 0-37 7-51 21-15 14-22 32-22 52 0 20 7 37 22 52 14 14 31 21 51 21 21 0 38-7 52-21 14-15 22-32 22-52z m201-110c0-30-11-56-32-77-22-22-48-33-78-33-30 0-56 11-78 33-21 21-32 47-32 77 0 30 11 56 32 78 22 21 48 32 78 32 30 0 56-11 78-32 21-22 32-48 32-78z m164-64c0-15-5-26-16-34-10-8-24-12-39-12l-38 0c-20 24-45 36-76 37 15 22 23 47 23 73 0 6 0 12-1 19 12-4 25-7 38-7 11 0 22 2 34 7 11 4 20 8 27 12 8 4 12 6 13 6 23 0 35-34 35-101z m-36 174c0-20-7-38-22-52-14-14-31-21-51-21-21 0-38 7-52 21-14 14-22 32-22 52 0 20 8 37 22 52 14 14 31 21 52 21 20 0 37-7 51-21 15-15 22-32 22-52z"/>
<glyph glyph-name="line-chart" unicode="&#37;" d="M549 73l0-36-586 0 0 438 37 0 0-402z m-37 357l0-125c0-4-2-6-6-8-3-2-7-1-10 2l-34 35-181-181c-2-2-4-3-7-3-2 0-4 1-6 3l-67 66-119-118-55 54 168 168c1 1 4 2 6 2 3 0 5-1 7-2l66-67 133 133-35 34c-3 3-3 7-2 10 2 4 5 6 9 6l124 0c3 0 5-1 6-3 2-1 3-4 3-6z"/>
<glyph glyph-name="globe" unicode="&#38;" d="M256 475c40 0 77-9 110-29 34-20 60-46 80-80 20-33 29-70 29-110 0-40-9-77-29-110-20-34-46-60-80-80-33-20-70-29-110-29-40 0-77 9-110 29-34 20-60 46-80 80-20 33-29 70-29 110 0 40 9 77 29 110 20 34 46 60 80 80 33 20 70 29 110 29z m78-148c0-1-1-2-2-3-2-2-3-3-4-3 0 0 1 1 1 2 0 1 1 2 1 3 1 1 1 2 1 2 2 1 4 2 7 4 2 1 7 2 15 3 6 2 11 1 14-3 0 1 1 2 3 4 2 2 3 3 4 3 1 1 2 1 4 2 3 0 4 1 5 2l0 6c-2 0-4 1-5 2-1 2-2 4-2 6 0 0 0-1-1-2 0 1-1 2-2 2-1 0-2 0-3 0-1-1-2-1-3 0-1 0-3 1-4 2-1 1-2 2-2 4-1 3-1 4-1 5-1 1-2 2-3 3-1 1-2 2-3 3 0 0 0 1 0 1-1 1-1 2-1 2-1 1-1 1-1 2-1 0-1 0-2 0-1 0-1 0-2-1-1-1-1-2-2-3-1-1-1-1-1-1-1 0-2 0-2 0-1 0-1 0-1 0-1 0-1-1-2-1 0 0-1-1-1-1-1 0-2-1-3-1-1 0-1 0-2 0 3 1 3 2 0 3-2 0-4 1-5 1 2 0 3 1 2 3 0 2-1 3-2 4l1 0c0 1-1 2-2 2-2 1-3 2-5 3-2 1-3 1-4 2-1 1-5 1-10 2-5 1-8 1-9 0-1-1-1-2-1-3 0 0 0-2 1-4 1-1 1-3 1-3 0-1 0-3-2-4-1-1-2-2-2-3 0-2 2-3 4-5 3-1 4-3 3-6 0-1-2-3-4-4-3-2-4-3-5-4-1-1-1-3 0-5 0-2 1-4 3-5 0 0 0-1 0-1 0 0 0-1-1-1 0-1-1-1-1-1-1-1-2-1-2-1l-1-1c-2-1-4 0-6 2-2 2-3 4-4 7-1 5-3 8-4 9-5 1-8 1-9-1-1 3-5 5-11 8-5 2-11 2-17 1 1 0 1 2 0 4-1 3-3 4-5 4 0 1 1 3 1 5 0 2 0 3 0 4 1 2 2 4 3 6 1 0 1 1 2 3 2 1 2 2 3 3 1 2 1 2 2 2 6-1 11 0 14 3 1 1 2 3 3 5 1 2 2 4 3 5 2 1 3 2 4 2 1-1 2-1 4-2 2-1 3-1 4-1 3-1 5 0 5 3 0 2-1 4-2 5 2 0 2 2 1 5-1 2-2 2-3 3-2 1-5 0-7-2-2 0-2-1 0-2 0 0-1-1-3-3-1-2-3-4-4-5-2-1-3-1-5 2 0 0-1 1-1 3-1 3-2 4-3 4-2 0-3-1-5-4 1 2 0 3-3 4-3 2-5 2-7 3 4 2 3 4-2 7-1 1-3 2-6 2-2 0-4 0-5-1-1-2-2-3-2-4 0-1 0-1 1-2 1-1 2-1 3-2 1 0 2 0 4-1 1 0 2 0 2-1 3-1 4-3 2-4 0 0-1 0-2-1-1 0-2 0-3-1-1 0-2-1-2-1-1-1-1-2 0-4 1-2 0-3-1-4-1 1-1 3-2 5-1 2-2 4-2 5 1-2-1-3-7-2l-3 0c-1 0-2 0-5 0-2-1-4-1-6-1-1 1-2 1-3 3-1 1-1 3 0 5 0 1 0 1 1 1-1 1-2 1-3 3-2 1-3 2-3 2-9-3-18-7-27-12 1 0 2 0 3 1 1 0 2 1 4 2 2 0 2 1 3 1 6 3 10 3 12 2l1 2c3-3 5-6 6-8-1 1-4 1-9 1-3-1-5-3-6-4 1-2 2-4 2-5-1 1-2 2-4 3-1 1-3 2-4 3-1 1-3 1-4 2-3 0-5-1-6-1-28-15-51-36-68-63 2-1 3-2 4-2 1-1 1-1 1-3 0-2 1-3 1-3 0-1 1 0 3 1 2-2 2-4 1-6 0 0 5-2 13-7 3-4 5-6 6-6 0-3-1-4-3-6 0 1-1 2-3 3-1 1-2 2-2 1-1-1-1-3 0-5 1-3 2-4 3-4-1 0-2-1-3-4 0-3-1-7-1-10 0-4 0-6 0-7l1 0c-1-3 0-6 1-10 2-5 4-6 6-6-2 0 0-5 6-12 1-2 2-3 2-3 1 0 2-1 4-2 2-1 3-2 4-3 1-1 2-2 3-3 1-1 2-3 3-6 1-3 2-6 4-7-1-1 0-3 3-6 2-2 3-4 3-6-1 0-1 0-1 0 0-1-1-1-1-1 1-1 2-2 5-4 2-1 3-2 4-3 0-1 0-2 1-3 0-2 0-3 0-3 1-1 2-1 3-1 0 4-2 10-7 18-3 4-5 7-5 8-1 1-1 2-2 4 0 2 0 4-1 5 1 0 1-1 2-1 1 0 1 0 2-1 1 0 2-1 2-1 1 0 1-1 1-1-1-1 0-3 1-5 1-2 2-4 3-5 1-2 3-3 5-6 2-2 3-3 3-3 1-1 3-3 4-6 2-2 2-4 0-4 2 0 4-1 6-3 2-1 4-3 5-5 1-2 2-4 2-8 1-3 1-5 2-7 0-1 1-2 2-3 1-2 2-3 4-3l4-2 4-2c1-1 3-2 5-3 3-2 5-3 6-4 2 0 4-1 5-1 1 0 2 0 4 1 2 0 3 1 4 1 3 0 5-1 8-4 3-4 5-6 6-6 7-4 12-5 16-4-1 0 0 0 0-2 0-1 1-2 2-4 1-2 2-3 3-4 1-1 1-2 1-3 1-1 3-2 6-4 2-2 4-3 5-4 1 0 2 1 2 2-1-1 0-3 2-5 2-3 3-4 5-3 3 0 4 3 4 9-6-3-11-1-14 5 0 0 0 1-1 2 0 0-1 1-1 2 0 1-1 2-1 2 0 1 0 2 0 3 0 0 1 0 2 0 1 0 2 1 3 1 0 1 0 2-1 4-1 2-1 3-1 4 0 1-1 3-3 5-2 3-3 4-4 5-1-2-2-3-4-3-2 1-4 1-5 3 0 0 0-1 0-2-1 0-1-1-1-1-2 0-4 0-4 0 0 0 0 2 1 5 0 3 0 5 1 6 0 1 0 2 1 4 1 1 2 3 2 4 1 1 1 2 2 3 0 2-1 2-2 3-1 1-2 1-5 1-3 0-6-2-7-6 0 0-1-1-1-3 0-1-1-2-1-3-1-1-2-2-3-2-1-1-4-1-7-1-3 0-5 1-7 2-2 1-4 4-6 8-2 4-3 8-3 11 0 1 0 4 1 7 0 3 1 6 1 7 0 2-1 4-2 7 1 1 2 2 3 3 1 1 2 2 3 3 0 0 0 0 1 0 0 1 1 1 1 0 1 0 1 0 1 1 1 0 1 1 1 2 0 0 0 0-1 0-1 1-1 1-1 1 1 0 4 0 8 1 4 1 7 0 8-1 3-2 5-2 6 1 0 0 0 1-1 3 0 1 0 2 0 3 1-5 4-6 9-2 0-1 2-1 4-2 2 0 4 0 5-1 1 0 1-1 2-2 1 0 1-1 2-1 0 0 0 0 1 0 1 1 1 1 2 2 2-3 3-5 4-7 2-7 4-12 5-12 2-1 3-1 3-1 1 0 2 1 2 3 0 1 0 3 0 4 0 1-1 2-1 3l0 3 0 5 0 2c-3 1-5 2-6 4 0 1 0 3 1 5 1 2 2 3 4 5 0 0 1 1 2 1 2 1 3 1 5 2 1 1 3 2 3 2 4 4 6 7 5 10 1 0 2 1 3 3 0 0-1 0-2 1 0 0-1 1-2 1 0 1-1 1-1 1 2 1 2 2 1 4 1 1 1 2 2 3 0 2 1 3 2 3 2-2 4-2 6 0 1 1 1 3 0 4 1 2 3 3 6 3 3 1 5 2 5 3 2 0 2 0 3 1 0 0 0 1 0 3 0 2 0 3 1 3 0 1 2 2 4 3 2 1 3 1 4 1l5 4c0 0 0 1 0 1 3-1 6 0 8 3 2 2 2 4-1 6 0 1 0 2-1 2-1 1-3 1-4 2 0 0 1 0 3 0 1 0 2 0 3 0 3 2 2 4-2 5-3 1-7 0-12-3z m-46-251c39 7 72 25 100 54-1 1-2 1-4 1-1 1-3 1-3 1-4 2-6 2-7 3 0 1 0 2-1 3 0 1-1 2-2 3-1 0-2 1-4 2-1 1-2 2-3 2 0 1-1 1-2 2-1 1-1 1-2 1 0 1-1 1-2 2-1 0-2 0-2 0-1 0-2 0-3 0l-1 0c-1 0-1-1-2-1 0 0-1-1-1-1-1 0-1 0-1-1 0 0 0 0 0 0-4 3-8 5-11 6-1 0-2 1-3 1-1 1-2 2-3 2-1 1-2 1-3 1-1 0-2-1-3-2-1-1-1-3-2-4 0-2 0-4 0-4-1 1-1 2 0 5 1 2 1 4 0 5 0 1-1 2-3 1-1 0-2 0-3-1-1 0-2-1-3-2-2-1-2-2-3-2 0 0-1-1-2-2-2-1-2-1-3-2 0-1-1-2-1-3-1-2-1-3-2-3 0 0-1 1-3 1-2 1-3 1-3 2 1-2 1-5 1-10 1-5 1-8 2-11 1-6 0-10-4-14-5-4-8-8-8-11-1-4 0-7 3-7 0-2 0-4-2-6-1-3-2-5-2-6 0-2 0-3 1-5z"/>
<glyph glyph-name="devices" unicode="&#39;" d="M111 51l0 0c-5 0-8-4-8-8 0-5 3-9 8-9 5 0 9 4 9 9 0 4-4 8-9 8z m136-17l18 0c4 0 8 4 8 9 0 4-4 8-8 8l-18 0c-4 0-8-4-8-8 0-5 4-9 8-9z m120 103l-120 0c-4 0-8-4-8-9 0-5 4-9 8-9l120 0c5 0 8 4 8 9 0 5-3 9-8 9z m-171 153l-170 0c-15 0-26-11-26-25l0-239c0-15 11-26 26-26l170 0c14 0 26 11 26 26l0 239c0 14-12 25-26 25z m9-264c0-5-4-9-9-9l-170 0c-5 0-9 4-9 9l0 239c0 4 4 8 9 8l170 0c5 0 9-4 9-8z m128 25l-26 0 0 43c0 5-4 8-8 8-5 0-9-3-9-8l0-51c0-5 4-9 9-9l34 0c16 0 22-9 24-17l-110 0c-4 0-8-4-8-8 0-5 4-9 8-9l120 0c5 0 8 4 8 9 0 14-8 42-42 42z m-77 103c9 0 17 7 17 17 0 9-8 17-17 17-9 0-17-8-17-17 0-10 8-17 17-17z m230 68l-68 0c-14 0-25-12-25-26l0-170c0-15 11-26 25-26l68 0c15 0 26 11 26 26l0 170c0 14-11 26-26 26z m9-196c0-5-4-9-9-9l-68 0c-5 0-8 4-8 9l0 170c0 5 3 9 8 9l68 0c5 0 9-4 9-9z m-26 486l-426 0c-24 0-43-19-43-43l0-153c0-5 4-9 9-9 4 0 8 4 8 9l0 153c0 14 12 26 26 26l426 0c14 0 26-12 26-26l0-222c0-4 4-8 8-8 5 0 9 4 9 8l0 222c0 24-19 43-43 43z m-16-461l-1 0c-4 0-8-4-8-8 0-5 4-9 9-9 4 0 8 4 8 9 0 4-4 8-8 8z m-86 171l-120 0c-4 0-8-4-8-9 0-4 4-8 8-8l120 0c5 0 8 4 8 8 0 5-3 9-8 9z m85 205c2 0 5 1 6 2 4 4 4 9 0 12l-17 17c-3 4-8 4-12 0-3-3-3-8 0-12l17-17c2-1 4-2 6-2z m0-52c2 0 5 1 6 3 4 3 4 9 0 12l-68 68c-3 4-9 4-12 0-3-3-3-8 0-12l68-68c2-2 4-3 6-3z"/>
<glyph glyph-name="placeholder" unicode="&#40;" d="M256 290c33 0 60 27 60 60 0 33-27 60-60 60-33 0-60-27-60-60 0-33 27-60 60-60z m0 103c24 0 43-20 43-43 0-24-19-43-43-43-24 0-43 19-43 43 0 23 19 43 43 43z m-2-348l131 189c50 65 42 173-15 230-31 31-72 48-116 48-43 0-84-17-115-48-57-57-65-165-16-230z m-103 407c28 28 64 43 103 43 40 0 76-15 104-43 52-52 58-149 14-208l-118-169-117 169c-44 59-38 156 14 208z m208-307c-4 1-9-3-9-7-1-5 3-9 7-10 90-11 138-39 138-55 0-24-91-56-239-56-148 0-239 32-239 56 0 16 48 44 138 55 4 1 8 5 7 10 0 4-5 8-9 7-90-11-153-40-153-72 0-37 88-73 256-73 168 0 256 36 256 73 0 32-63 61-153 72z"/>
<glyph glyph-name="circle" unicode="&#41;" d="M475 256c0-40-9-77-29-110-20-34-46-60-80-80-33-20-70-29-110-29-40 0-77 9-110 29-34 20-60 46-80 80-20 33-29 70-29 110 0 40 9 77 29 110 20 34 46 60 80 80 33 20 70 29 110 29 40 0 77-9 110-29 34-20 60-46 80-80 20-33 29-70 29-110z"/>
<glyph glyph-name="2-m-storage" unicode="&#42;" d="M500 165c0 7-1 15-3 21l-52 203c-7 29-32 49-62 49l-253 0c-29 0-55-20-62-48l-54-208c0-1 0-1 0-1-2-5-2-11-2-16l0-20c0-39 32-71 71-71l346 0c40 0 71 32 71 71z m-408 219c4 17 20 30 38 30l253 0c19 0 34-13 39-31l39-155c-10 5-20 8-32 8l-346 0c-12 0-22-3-32-8z m384-239c0-26-21-47-47-47l-346 0c-26 0-47 21-47 47l0 20c0 26 21 46 47 46l346 0c21 0 39-13 45-32l1-6c1-2 1-5 1-8z m-86 22l-139 0c-7 0-12-5-12-12 0-7 5-13 12-13l139 0c7 0 12 6 12 13 0 7-5 12-12 12z m-237-12c0-9-7-16-15-16-9 0-16 7-16 16 0 9 7 16 16 16 8 0 15-7 15-16z"/>
</font>
</defs>
</svg>
